<svg width="109" height="21" viewBox="0 0 109 21" fill="none" xmlns="http://www.w3.org/2000/svg">
<path d="M3.992 8.548H13.736V11.544H3.992V8.548ZM4.272 16.948H15.332V20H0.632V0.399999H14.94V3.452H4.272V16.948ZM25.7771 20.196C24.2091 20.196 22.8091 19.8693 21.5771 19.216C20.3638 18.544 19.4118 17.6293 18.7211 16.472C18.0304 15.3147 17.6851 13.9987 17.6851 12.524C17.6851 11.0307 18.0304 9.71467 18.7211 8.576C19.4118 7.41867 20.3638 6.51333 21.5771 5.86C22.8091 5.20667 24.2091 4.88 25.7771 4.88C27.2331 4.88 28.5118 5.17867 29.6131 5.776C30.7331 6.35467 31.5824 7.21333 32.1611 8.352L29.4731 9.92C29.0251 9.21067 28.4744 8.688 27.8211 8.352C27.1864 8.016 26.4958 7.848 25.7491 7.848C24.8904 7.848 24.1158 8.03467 23.4251 8.408C22.7344 8.78133 22.1931 9.32267 21.8011 10.032C21.4091 10.7227 21.2131 11.5533 21.2131 12.524C21.2131 13.4947 21.4091 14.3347 21.8011 15.044C22.1931 15.7347 22.7344 16.2667 23.4251 16.64C24.1158 17.0133 24.8904 17.2 25.7491 17.2C26.4958 17.2 27.1864 17.032 27.8211 16.696C28.4744 16.36 29.0251 15.8373 29.4731 15.128L32.1611 16.696C31.5824 17.816 30.7331 18.684 29.6131 19.3C28.5118 19.8973 27.2331 20.196 25.7771 20.196ZM41.6879 20.196C40.1572 20.196 38.7945 19.8693 37.5999 19.216C36.4052 18.544 35.4625 17.6293 34.7719 16.472C34.0812 15.3147 33.7359 13.9987 33.7359 12.524C33.7359 11.0307 34.0812 9.71467 34.7719 8.576C35.4625 7.41867 36.4052 6.51333 37.5999 5.86C38.7945 5.20667 40.1572 4.88 41.6879 4.88C43.2372 4.88 44.6092 5.20667 45.8039 5.86C47.0172 6.51333 47.9599 7.40933 48.6319 8.548C49.3225 9.68667 49.6679 11.012 49.6679 12.524C49.6679 13.9987 49.3225 15.3147 48.6319 16.472C47.9599 17.6293 47.0172 18.544 45.8039 19.216C44.6092 19.8693 43.2372 20.196 41.6879 20.196ZM41.6879 17.2C42.5465 17.2 43.3119 17.0133 43.9839 16.64C44.6559 16.2667 45.1785 15.7253 45.5519 15.016C45.9439 14.3067 46.1399 13.476 46.1399 12.524C46.1399 11.5533 45.9439 10.7227 45.5519 10.032C45.1785 9.32267 44.6559 8.78133 43.9839 8.408C43.3119 8.03467 42.5559 7.848 41.7159 7.848C40.8572 7.848 40.0919 8.03467 39.4199 8.408C38.7665 8.78133 38.2439 9.32267 37.8519 10.032C37.4599 10.7227 37.2639 11.5533 37.2639 12.524C37.2639 13.476 37.4599 14.3067 37.8519 15.016C38.2439 15.7253 38.7665 16.2667 39.4199 16.64C40.0919 17.0133 40.8479 17.2 41.6879 17.2ZM71.8868 4.88C73.0814 4.88 74.1361 5.11333 75.0508 5.58C75.9841 6.04667 76.7121 6.76533 77.2348 7.736C77.7574 8.688 78.0188 9.92 78.0188 11.432V20H74.5188V11.88C74.5188 10.5547 74.2294 9.56533 73.6508 8.912C73.0721 8.25867 72.2414 7.932 71.1588 7.932C70.3934 7.932 69.7121 8.1 69.1148 8.436C68.5361 8.772 68.0788 9.26667 67.7428 9.92C67.4254 10.5733 67.2668 11.404 67.2668 12.412V20H63.7668V11.88C63.7668 10.5547 63.4774 9.56533 62.8988 8.912C62.3201 8.25867 61.4894 7.932 60.4068 7.932C59.6414 7.932 58.9601 8.1 58.3628 8.436C57.7841 8.772 57.3268 9.26667 56.9908 9.92C56.6734 10.5733 56.5148 11.404 56.5148 12.412V20H53.0148V5.048H56.3468V9.024L55.7588 7.848C56.2628 6.87733 56.9908 6.14 57.9428 5.636C58.9134 5.132 60.0148 4.88 61.2468 4.88C62.6468 4.88 63.8601 5.22533 64.8868 5.916C65.9321 6.60667 66.6228 7.652 66.9588 9.052L65.5868 8.576C66.0721 7.456 66.8748 6.56 67.9948 5.888C69.1148 5.216 70.4121 4.88 71.8868 4.88ZM82.4913 20V5.048H85.8233V9.164L85.4313 7.96C85.8793 6.952 86.5793 6.18667 87.5313 5.664C88.502 5.14133 89.706 4.88 91.1433 4.88V8.212C90.994 8.17467 90.854 8.156 90.7233 8.156C90.5926 8.13733 90.462 8.128 90.3313 8.128C89.006 8.128 87.9513 8.52 87.1673 9.304C86.3833 10.0693 85.9913 11.2173 85.9913 12.748V20H82.4913ZM100.577 20.196C99.3078 20.196 98.1878 19.9627 97.2171 19.496C96.2465 19.0107 95.4905 18.2827 94.9491 17.312C94.4078 16.3227 94.1371 15.0813 94.1371 13.588V5.048H97.6371V13.112C97.6371 14.456 97.9358 15.464 98.5331 16.136C99.1491 16.7893 100.017 17.116 101.137 17.116C101.958 17.116 102.668 16.948 103.265 16.612C103.881 16.276 104.357 15.772 104.693 15.1C105.048 14.428 105.225 13.5973 105.225 12.608V5.048H108.725V20H105.393V15.968L105.981 17.2C105.477 18.1707 104.74 18.9173 103.769 19.44C102.798 19.944 101.734 20.196 100.577 20.196Z" fill="white"/>
</svg>
