<svg width="256" height="54" viewBox="0 0 256 54" fill="none" xmlns="http://www.w3.org/2000/svg">
<g filter="url(#filter0_d_80_36)">
<path d="M11.696 18.824H33.968V25.672H11.696V18.824ZM12.336 38.024H37.616V45H4.016V0.199997H36.72V7.176H12.336V38.024ZM61.4905 45.448C57.9065 45.448 54.7065 44.7013 51.8905 43.208C49.1172 41.672 46.9412 39.5813 45.3625 36.936C43.7838 34.2907 42.9945 31.2827 42.9945 27.912C42.9945 24.4987 43.7838 21.4907 45.3625 18.888C46.9412 16.2427 49.1172 14.1733 51.8905 12.68C54.7065 11.1867 57.9065 10.44 61.4905 10.44C64.8185 10.44 67.7412 11.1227 70.2585 12.488C72.8185 13.8107 74.7598 15.7733 76.0825 18.376L69.9385 21.96C68.9145 20.3387 67.6558 19.144 66.1625 18.376C64.7118 17.608 63.1332 17.224 61.4265 17.224C59.4638 17.224 57.6932 17.6507 56.1145 18.504C54.5358 19.3573 53.2985 20.5947 52.4025 22.216C51.5065 23.7947 51.0585 25.6933 51.0585 27.912C51.0585 30.1307 51.5065 32.0507 52.4025 33.672C53.2985 35.2507 54.5358 36.4667 56.1145 37.32C57.6932 38.1733 59.4638 38.6 61.4265 38.6C63.1332 38.6 64.7118 38.216 66.1625 37.448C67.6558 36.68 68.9145 35.4853 69.9385 33.864L76.0825 37.448C74.7598 40.008 72.8185 41.992 70.2585 43.4C67.7412 44.7653 64.8185 45.448 61.4905 45.448ZM97.858 45.448C94.3593 45.448 91.2447 44.7013 88.514 43.208C85.7833 41.672 83.6287 39.5813 82.05 36.936C80.4713 34.2907 79.682 31.2827 79.682 27.912C79.682 24.4987 80.4713 21.4907 82.05 18.888C83.6287 16.2427 85.7833 14.1733 88.514 12.68C91.2447 11.1867 94.3593 10.44 97.858 10.44C101.399 10.44 104.535 11.1867 107.266 12.68C110.039 14.1733 112.194 16.2213 113.73 18.824C115.309 21.4267 116.098 24.456 116.098 27.912C116.098 31.2827 115.309 34.2907 113.73 36.936C112.194 39.5813 110.039 41.672 107.266 43.208C104.535 44.7013 101.399 45.448 97.858 45.448ZM97.858 38.6C99.8207 38.6 101.57 38.1733 103.106 37.32C104.642 36.4667 105.837 35.2293 106.69 33.608C107.586 31.9867 108.034 30.088 108.034 27.912C108.034 25.6933 107.586 23.7947 106.69 22.216C105.837 20.5947 104.642 19.3573 103.106 18.504C101.57 17.6507 99.842 17.224 97.922 17.224C95.9593 17.224 94.21 17.6507 92.674 18.504C91.1807 19.3573 89.986 20.5947 89.09 22.216C88.194 23.7947 87.746 25.6933 87.746 27.912C87.746 30.088 88.194 31.9867 89.09 33.608C89.986 35.2293 91.1807 36.4667 92.674 37.32C94.21 38.1733 95.938 38.6 97.858 38.6ZM166.884 10.44C169.615 10.44 172.025 10.9733 174.116 12.04C176.249 13.1067 177.913 14.7493 179.108 16.968C180.303 19.144 180.9 21.96 180.9 25.416V45H172.9V26.44C172.9 23.4107 172.239 21.1493 170.916 19.656C169.593 18.1627 167.695 17.416 165.22 17.416C163.471 17.416 161.913 17.8 160.548 18.568C159.225 19.336 158.18 20.4667 157.412 21.96C156.687 23.4533 156.324 25.352 156.324 27.656V45H148.324V26.44C148.324 23.4107 147.663 21.1493 146.34 19.656C145.017 18.1627 143.119 17.416 140.644 17.416C138.895 17.416 137.337 17.8 135.972 18.568C134.649 19.336 133.604 20.4667 132.836 21.96C132.111 23.4533 131.748 25.352 131.748 27.656V45H123.748V10.824H131.364V19.912L130.02 17.224C131.172 15.0053 132.836 13.32 135.012 12.168C137.231 11.016 139.748 10.44 142.564 10.44C145.764 10.44 148.537 11.2293 150.884 12.808C153.273 14.3867 154.852 16.776 155.62 19.976L152.484 18.888C153.593 16.328 155.428 14.28 157.988 12.744C160.548 11.208 163.513 10.44 166.884 10.44ZM191.123 45V10.824H198.739V20.232L197.843 17.48C198.867 15.176 200.467 13.4267 202.643 12.232C204.862 11.0373 207.614 10.44 210.899 10.44V18.056C210.558 17.9707 210.238 17.928 209.939 17.928C209.64 17.8853 209.342 17.864 209.043 17.864C206.014 17.864 203.603 18.76 201.811 20.552C200.019 22.3013 199.123 24.9253 199.123 28.424V45H191.123ZM232.462 45.448C229.561 45.448 227.001 44.9147 224.782 43.848C222.563 42.7387 220.835 41.0747 219.598 38.856C218.361 36.5947 217.742 33.7573 217.742 30.344V10.824H225.742V29.256C225.742 32.328 226.425 34.632 227.79 36.168C229.198 37.6613 231.182 38.408 233.742 38.408C235.619 38.408 237.241 38.024 238.606 37.256C240.014 36.488 241.102 35.336 241.87 33.8C242.681 32.264 243.086 30.3653 243.086 28.104V10.824H251.086V45H243.47V35.784L244.814 38.6C243.662 40.8187 241.977 42.5253 239.758 43.72C237.539 44.872 235.107 45.448 232.462 45.448Z" fill="white"/>
</g>
<defs>
<filter id="filter0_d_80_36" x="0.0161133" y="0.199951" width="255.07" height="53.248" filterUnits="userSpaceOnUse" color-interpolation-filters="sRGB">
<feFlood flood-opacity="0" result="BackgroundImageFix"/>
<feColorMatrix in="SourceAlpha" type="matrix" values="0 0 0 0 0 0 0 0 0 0 0 0 0 0 0 0 0 0 127 0" result="hardAlpha"/>
<feOffset dy="4"/>
<feGaussianBlur stdDeviation="2"/>
<feComposite in2="hardAlpha" operator="out"/>
<feColorMatrix type="matrix" values="0 0 0 0 0 0 0 0 0 0 0 0 0 0 0 0 0 0 0.25 0"/>
<feBlend mode="normal" in2="BackgroundImageFix" result="effect1_dropShadow_80_36"/>
<feBlend mode="normal" in="SourceGraphic" in2="effect1_dropShadow_80_36" result="shape"/>
</filter>
</defs>
</svg>
