<svg width="114" height="27" viewBox="0 0 114 27" fill="none" xmlns="http://www.w3.org/2000/svg">
<g filter="url(#filter0_d_80_74)">
<path d="M7.136 8.184H15.488V10.752H7.136V8.184ZM7.376 15.384H16.856V18H4.256V1.2H16.52V3.816H7.376V15.384ZM25.8089 18.168C24.4649 18.168 23.2649 17.888 22.2089 17.328C21.1689 16.752 20.3529 15.968 19.7609 14.976C19.1689 13.984 18.8729 12.856 18.8729 11.592C18.8729 10.312 19.1689 9.184 19.7609 8.208C20.3529 7.216 21.1689 6.44 22.2089 5.88C23.2649 5.32 24.4649 5.04 25.8089 5.04C27.0569 5.04 28.1529 5.296 29.0969 5.808C30.0569 6.304 30.7849 7.04 31.2809 8.016L28.9769 9.36C28.5929 8.752 28.1209 8.304 27.5609 8.016C27.0169 7.728 26.4249 7.584 25.7849 7.584C25.0489 7.584 24.3849 7.744 23.7929 8.064C23.2009 8.384 22.7369 8.848 22.4009 9.456C22.0649 10.048 21.8969 10.76 21.8969 11.592C21.8969 12.424 22.0649 13.144 22.4009 13.752C22.7369 14.344 23.2009 14.8 23.7929 15.12C24.3849 15.44 25.0489 15.6 25.7849 15.6C26.4249 15.6 27.0169 15.456 27.5609 15.168C28.1209 14.88 28.5929 14.432 28.9769 13.824L31.2809 15.168C30.7849 16.128 30.0569 16.872 29.0969 17.4C28.1529 17.912 27.0569 18.168 25.8089 18.168ZM39.4468 18.168C38.1348 18.168 36.9668 17.888 35.9428 17.328C34.9188 16.752 34.1108 15.968 33.5188 14.976C32.9268 13.984 32.6308 12.856 32.6308 11.592C32.6308 10.312 32.9268 9.184 33.5188 8.208C34.1108 7.216 34.9188 6.44 35.9428 5.88C36.9668 5.32 38.1348 5.04 39.4468 5.04C40.7748 5.04 41.9508 5.32 42.9748 5.88C44.0148 6.44 44.8228 7.208 45.3988 8.184C45.9908 9.16 46.2868 10.296 46.2868 11.592C46.2868 12.856 45.9908 13.984 45.3988 14.976C44.8228 15.968 44.0148 16.752 42.9748 17.328C41.9508 17.888 40.7748 18.168 39.4468 18.168ZM39.4468 15.6C40.1828 15.6 40.8388 15.44 41.4148 15.12C41.9908 14.8 42.4388 14.336 42.7588 13.728C43.0948 13.12 43.2628 12.408 43.2628 11.592C43.2628 10.76 43.0948 10.048 42.7588 9.456C42.4388 8.848 41.9908 8.384 41.4148 8.064C40.8388 7.744 40.1908 7.584 39.4708 7.584C38.7348 7.584 38.0788 7.744 37.5028 8.064C36.9428 8.384 36.4948 8.848 36.1588 9.456C35.8228 10.048 35.6548 10.76 35.6548 11.592C35.6548 12.408 35.8228 13.12 36.1588 13.728C36.4948 14.336 36.9428 14.8 37.5028 15.12C38.0788 15.44 38.7268 15.6 39.4468 15.6ZM65.3315 5.04C66.3555 5.04 67.2595 5.24 68.0435 5.64C68.8435 6.04 69.4675 6.656 69.9155 7.488C70.3635 8.304 70.5875 9.36 70.5875 10.656V18H67.5875V11.04C67.5875 9.904 67.3395 9.056 66.8435 8.496C66.3475 7.936 65.6355 7.656 64.7075 7.656C64.0515 7.656 63.4675 7.8 62.9555 8.088C62.4595 8.376 62.0675 8.8 61.7795 9.36C61.5075 9.92 61.3715 10.632 61.3715 11.496V18H58.3715V11.04C58.3715 9.904 58.1235 9.056 57.6275 8.496C57.1315 7.936 56.4195 7.656 55.4915 7.656C54.8355 7.656 54.2515 7.8 53.7395 8.088C53.2435 8.376 52.8515 8.8 52.5635 9.36C52.2915 9.92 52.1555 10.632 52.1555 11.496V18H49.1555V5.184H52.0115V8.592L51.5075 7.584C51.9395 6.752 52.5635 6.12 53.3795 5.688C54.2115 5.256 55.1555 5.04 56.2115 5.04C57.4115 5.04 58.4515 5.336 59.3315 5.928C60.2275 6.52 60.8195 7.416 61.1075 8.616L59.9315 8.208C60.3475 7.248 61.0355 6.48 61.9955 5.904C62.9555 5.328 64.0675 5.04 65.3315 5.04ZM74.4211 18V0.191999H77.4211V18H74.4211ZM89.2546 18V15.408L89.0866 14.856V10.32C89.0866 9.44 88.8226 8.76 88.2946 8.28C87.7666 7.784 86.9666 7.536 85.8946 7.536C85.1746 7.536 84.4626 7.648 83.7586 7.872C83.0706 8.096 82.4866 8.408 82.0066 8.808L80.8306 6.624C81.5186 6.096 82.3346 5.704 83.2786 5.448C84.2386 5.176 85.2306 5.04 86.2546 5.04C88.1106 5.04 89.5426 5.488 90.5506 6.384C91.5746 7.264 92.0866 8.632 92.0866 10.488V18H89.2546ZM85.2226 18.168C84.2626 18.168 83.4226 18.008 82.7026 17.688C81.9826 17.352 81.4226 16.896 81.0226 16.32C80.6386 15.728 80.4466 15.064 80.4466 14.328C80.4466 13.608 80.6146 12.96 80.9506 12.384C81.3026 11.808 81.8706 11.352 82.6546 11.016C83.4386 10.68 84.4786 10.512 85.7746 10.512H89.4946V12.504H85.9906C84.9666 12.504 84.2786 12.672 83.9266 13.008C83.5746 13.328 83.3986 13.728 83.3986 14.208C83.3986 14.752 83.6146 15.184 84.0466 15.504C84.4786 15.824 85.0786 15.984 85.8466 15.984C86.5826 15.984 87.2386 15.816 87.8146 15.48C88.4066 15.144 88.8306 14.648 89.0866 13.992L89.5906 15.792C89.3026 16.544 88.7826 17.128 88.0306 17.544C87.2946 17.96 86.3586 18.168 85.2226 18.168ZM103.041 18.168C101.953 18.168 100.985 17.928 100.137 17.448C99.2888 16.968 98.6168 16.248 98.1208 15.288C97.6408 14.312 97.4008 13.08 97.4008 11.592C97.4008 10.088 97.6488 8.856 98.1448 7.896C98.6568 6.936 99.3368 6.224 100.185 5.76C101.049 5.28 102.001 5.04 103.041 5.04C104.305 5.04 105.417 5.312 106.377 5.856C107.353 6.4 108.121 7.16 108.681 8.136C109.257 9.112 109.545 10.264 109.545 11.592C109.545 12.92 109.257 14.072 108.681 15.048C108.121 16.024 107.353 16.792 106.377 17.352C105.417 17.896 104.305 18.168 103.041 18.168ZM95.9368 18V0.191999H98.9368V8.16L98.6968 11.568L98.7928 14.976V18H95.9368ZM102.705 15.6C103.425 15.6 104.065 15.44 104.625 15.12C105.201 14.8 105.657 14.336 105.993 13.728C106.329 13.12 106.497 12.408 106.497 11.592C106.497 10.76 106.329 10.048 105.993 9.456C105.657 8.848 105.201 8.384 104.625 8.064C104.065 7.744 103.425 7.584 102.705 7.584C101.985 7.584 101.337 7.744 100.761 8.064C100.185 8.384 99.7288 8.848 99.3928 9.456C99.0568 10.048 98.8888 10.76 98.8888 11.592C98.8888 12.408 99.0568 13.12 99.3928 13.728C99.7288 14.336 100.185 14.8 100.761 15.12C101.337 15.44 101.985 15.6 102.705 15.6Z" fill="black"/>
</g>
<defs>
<filter id="filter0_d_80_74" x="0.255859" y="0.192017" width="113.289" height="25.976" filterUnits="userSpaceOnUse" color-interpolation-filters="sRGB">
<feFlood flood-opacity="0" result="BackgroundImageFix"/>
<feColorMatrix in="SourceAlpha" type="matrix" values="0 0 0 0 0 0 0 0 0 0 0 0 0 0 0 0 0 0 127 0" result="hardAlpha"/>
<feOffset dy="4"/>
<feGaussianBlur stdDeviation="2"/>
<feComposite in2="hardAlpha" operator="out"/>
<feColorMatrix type="matrix" values="0 0 0 0 0 0 0 0 0 0 0 0 0 0 0 0 0 0 0.25 0"/>
<feBlend mode="normal" in2="BackgroundImageFix" result="effect1_dropShadow_80_74"/>
<feBlend mode="normal" in="SourceGraphic" in2="effect1_dropShadow_80_74" result="shape"/>
</filter>
</defs>
</svg>
